<?xml version="1.0" encoding="iso-8859-1"?>
<!-- Generator: Adobe Illustrator 24.1.2, SVG Export Plug-In . SVG Version: 6.00 Build 0)  -->
<svg version="1.1" baseProfile="basic" id="&#x421;&#x43B;&#x43E;&#x439;_1"
	 xmlns="http://www.w3.org/2000/svg" xmlns:xlink="http://www.w3.org/1999/xlink" x="0px" y="0px" viewBox="0 0 100 100"
	 xml:space="preserve">
<path marker-start="none" marker-end="none" style="fill-rule:evenodd;clip-rule:evenodd;" d="M40.535,75H0.002l0.001-4h40.533
	c0.515,0,1.036-0.04,1.595-0.147c3.993-0.76,6.871-3.867,6.871-6.44h0.001V64.4c0-1.133-0.539-2.027-1.537-2.64
	c-1.04-0.64-2.641-0.973-4.592-0.613c-4.059,0.773-6.871,3.92-6.871,6.453c0,0.52,0.113,0.987,0.327,1.4h-4.193
	c-0.088-0.453-0.133-0.92-0.133-1.4c0-5.013,4.773-9.373,10.128-10.373c2.74-0.52,5.388-0.133,7.425,1.12
	c2.083,1.28,3.447,3.413,3.447,6.053c0,0.187-0.001,0.4-0.025,0.6c-0.355,4.68-4.917,8.8-10.104,9.773
	C42.078,74.933,41.306,75,40.535,75z M59.131,74.773c-2.539-0.48-4.937-1.707-6.763-3.4c0.893-1.107,1.6-2.32,2.055-3.613
	c1.227,1.44,3.161,2.653,5.451,3.093C60.433,70.947,60.954,71,61.469,71h38.533l0.001,4H61.47
	C60.699,75,59.927,74.933,59.131,74.773z M59.003,62c0-5.187-0.612-8.8-1.971-11.56c-0.535-1.08-1.199-2.053-2.029-2.973v-5.32
	c2.459,1.8,4.317,3.893,5.617,6.533c0.659,1.333,1.159,2.773,1.525,4.347l0.219,1.093l0.336-1.347
	c0.193-0.933,0.303-1.853,0.303-2.773c0-3.827-1.964-7.013-4.847-10.52c-1.456-1.773-3.087-3.547-4.652-5.44l-0.501-0.627v25.32
	c-0.671-0.827-1.484-1.533-2.401-2.093c-0.509-0.307-1.044-0.573-1.599-0.8V27c0-2.067,2.772-2.773,3.757-0.947
	C57.166,34.16,67.003,39.947,67.003,50c0,4.773-2.208,9.453-4.271,13C61.711,64.76,59.003,64.04,59.003,62z"/>
</svg>