<?xml version="1.0" encoding="UTF-8"?>
<svg id="_Слой_1" data-name="Слой 1" xmlns="http://www.w3.org/2000/svg" viewBox="0 0 219.4 62.86">
  <defs>
    <style>
      .cls-1 {
        font-family: Futura, Futura;
        font-size: 48px;
      }

      .cls-2 {
        fill-rule: evenodd;
      }
    </style>
  </defs>
  <path class="cls-2" d="m40.53,50H0v-4h40.53c.51,0,1.04-.04,1.6-.15,3.99-.76,6.87-3.87,6.87-6.44h0c0-1.15-.54-2.04-1.54-2.65-1.04-.64-2.64-.97-4.59-.61-4.06.77-6.87,3.92-6.87,6.45,0,.52.11.99.33,1.4h-4.19c-.09-.45-.13-.92-.13-1.4,0-5.01,4.77-9.37,10.13-10.37,2.74-.52,5.39-.13,7.42,1.12,2.08,1.28,3.45,3.41,3.45,6.05,0,.19,0,.4-.03.6-.35,4.68-4.92,8.8-10.1,9.77-.8.16-1.57.23-2.34.23Zm18.6-.23c-2.54-.48-4.94-1.71-6.76-3.4.89-1.11,1.6-2.32,2.06-3.61,1.23,1.44,3.16,2.65,5.45,3.09.56.09,1.08.15,1.6.15h38.53v4s-38.53,0-38.53,0c-.77,0-1.54-.07-2.34-.23Zm-.13-12.77c0-5.19-.61-8.8-1.97-11.56-.53-1.08-1.2-2.05-2.03-2.97v-5.32c2.46,1.8,4.32,3.89,5.62,6.53.66,1.33,1.16,2.77,1.53,4.35l.22,1.09.34-1.35c.19-.93.3-1.85.3-2.77,0-3.83-1.96-7.01-4.85-10.52-1.46-1.77-3.09-3.55-4.65-5.44l-.5-.63v25.32c-.67-.83-1.48-1.53-2.4-2.09-.51-.31-1.04-.57-1.6-.8V2c0-2.07,2.77-2.77,3.76-.95,4.41,8.11,14.24,13.89,14.24,23.95,0,4.77-2.21,9.45-4.27,13-1.02,1.76-3.73,1.04-3.73-1Z" marker-end="none" marker-start="none"/>
  <text class="cls-1" transform="translate(95.08 50)"><tspan x="0" y="0">NOTE</tspan></text>
</svg>