<?xml version="1.0" encoding="utf-8"?>
<!-- Generator: $$$/GeneralStr/196=Adobe Illustrator 27.6.0, SVG Export Plug-In . SVG Version: 6.00 Build 0)  -->
<svg version="1.1" id="_Слой_1" xmlns="http://www.w3.org/2000/svg" xmlns:xlink="http://www.w3.org/1999/xlink" x="0px"
	 y="0px" viewBox="0 0 219.4 62.9" style="enable-background:new 0 0 219.4 62.9;" xml:space="preserve">
<style type="text/css">
	.st0{fill-rule:evenodd;clip-rule:evenodd;fill:#5BC2E7;}
	.st1{fill:#5BC2E7;}
	.st2{font-family:'Futura';}
	.st3{font-size:23.9976px;}
</style>
<path marker-start="none" marker-end="none" class="st0" d="M20.3,25H0v-2h20.3c0.3,0,0.5,0,0.8-0.1c2-0.4,3.4-1.9,3.4-3.2l0,0
	c0-0.6-0.3-1-0.8-1.3c-0.5-0.3-1.3-0.5-2.3-0.3c-2,0.4-3.4,2-3.4,3.2c0,0.3,0.1,0.5,0.2,0.7h-2.1c0-0.2-0.1-0.5-0.1-0.7
	c0-2.5,2.4-4.7,5.1-5.2c1.4-0.3,2.7-0.1,3.7,0.6c1,0.6,1.7,1.7,1.7,3c0,0.1,0,0.2,0,0.3c-0.2,2.3-2.5,4.4-5,4.9
	C21,25,20.7,25,20.3,25L20.3,25z M29.6,24.9c-1.3-0.2-2.5-0.9-3.4-1.7c0.4-0.6,0.8-1.2,1-1.8c0.6,0.7,1.6,1.3,2.7,1.5
	c0.3,0,0.5,0.1,0.8,0.1H50v2H30.7C30.4,25,30,25,29.6,24.9L29.6,24.9z M29.5,18.5c0-2.6-0.3-4.4-1-5.8c-0.3-0.5-0.6-1-1-1.5V8.6
	c1.2,0.9,2.2,1.9,2.8,3.3c0.3,0.7,0.6,1.4,0.8,2.2l0.1,0.5l0.2-0.7c0.1-0.5,0.1-0.9,0.1-1.4c0-1.9-1-3.5-2.4-5.3
	c-0.7-0.9-1.5-1.8-2.3-2.7l-0.2-0.3v12.7c-0.3-0.4-0.7-0.8-1.2-1c-0.3-0.2-0.5-0.3-0.8-0.4V1c0-1,1.4-1.4,1.9-0.5
	c2.2,4.1,7.1,6.9,7.1,12c0,2.4-1.1,4.7-2.1,6.5C30.9,19.9,29.5,19.5,29.5,18.5L29.5,18.5z"/>
<text transform="matrix(1 0 0 1 48.2822 24.9985)" class="st1 st2 st3">NOTE</text>
</svg>
