<?xml version="1.0" encoding="utf-8"?>
<!-- Generator: $$$/GeneralStr/196=Adobe Illustrator 27.6.0, SVG Export Plug-In . SVG Version: 6.00 Build 0)  -->
<svg version="1.1" id="_Слой_1" xmlns="http://www.w3.org/2000/svg" xmlns:xlink="http://www.w3.org/1999/xlink" x="0px"
	 y="0px" viewBox="0 0 219.4 62.9" style="enable-background:new 0 0 219.4 62.9;" xml:space="preserve">
<style type="text/css">
	.st0{fill-rule:evenodd;clip-rule:evenodd;fill:#5BC2E7;}
	.st1{fill:#5BC2E7;}
	.st2{font-family:'Futura';}
	.st3{font-size:48px;}
</style>
<path marker-start="none" marker-end="none" class="st0" d="M40.5,50H0v-4h40.5c0.5,0,1,0,1.6-0.2c4-0.8,6.9-3.9,6.9-6.4l0,0
	c0-1.2-0.5-2-1.5-2.7c-1-0.6-2.6-1-4.6-0.6c-4.1,0.8-6.9,3.9-6.9,6.5c0,0.5,0.1,1,0.3,1.4h-4.2C32,43.5,32,43.1,32,42.6
	c0-5,4.8-9.4,10.1-10.4c2.7-0.5,5.4-0.1,7.4,1.1c2.1,1.3,3.5,3.4,3.5,6c0,0.2,0,0.4,0,0.6c-0.3,4.7-4.9,8.8-10.1,9.8
	C42.1,49.9,41.3,50,40.5,50L40.5,50z M59.1,49.8c-2.5-0.5-4.9-1.7-6.8-3.4c0.9-1.1,1.6-2.3,2.1-3.6c1.2,1.4,3.2,2.7,5.5,3.1
	c0.6,0.1,1.1,0.2,1.6,0.2H100v4H61.5C60.7,50,59.9,49.9,59.1,49.8L59.1,49.8z M59,37c0-5.2-0.6-8.8-2-11.6c-0.5-1.1-1.2-2-2-3v-5.3
	c2.5,1.8,4.3,3.9,5.6,6.5c0.7,1.3,1.2,2.8,1.5,4.4l0.2,1.1l0.3-1.4c0.2-0.9,0.3-1.9,0.3-2.8c0-3.8-2-7-4.8-10.5
	c-1.5-1.8-3.1-3.6-4.7-5.4L53,8.4v25.3c-0.7-0.8-1.5-1.5-2.4-2.1c-0.5-0.3-1-0.6-1.6-0.8V2c0-2.1,2.8-2.8,3.8-1
	C57.2,9.2,67,14.9,67,25c0,4.8-2.2,9.5-4.3,13C61.7,39.8,59,39,59,37L59,37z"/>
<text transform="matrix(1 0 0 1 96.5738 50)" class="st1 st2 st3">NOTE</text>
</svg>
